<?xml version="1.0" standalone="no"?>
<!DOCTYPE svg PUBLIC "-//W3C//DTD SVG 20010904//EN"
 "http://www.w3.org/TR/2001/REC-SVG-20010904/DTD/svg10.dtd">
<svg version="1.0" xmlns="http://www.w3.org/2000/svg"
 width="600.000000pt" height="400.000000pt" viewBox="0 0 600.000000 400.000000"
 preserveAspectRatio="xMidYMid meet">
<g transform="translate(0.000000,400.000000) scale(0.100000,-0.100000)"
fill="#000000" stroke="none">
<path d="M1245 2655 c-5 -1 -39 -11 -75 -21 -36 -9 -70 -21 -76 -26 -6 -5 -20
-6 -30 -2 -16 5 -16 4 -4 -5 14 -10 13 -12 -10 -15 -5 0 -19 -9 -30 -19 -12
-10 -25 -15 -31 -12 -5 4 -8 1 -7 -7 2 -7 -4 -12 -12 -10 -8 2 -12 1 -9 -3 4
-3 -6 -20 -22 -37 -15 -17 -26 -36 -23 -42 3 -6 -2 -2 -11 9 -17 20 -17 20
-10 -4 5 -16 4 -21 -4 -17 -7 5 -9 1 -5 -9 4 -9 -2 -25 -12 -36 -10 -11 -18
-34 -17 -53 2 -64 61 -128 168 -181 170 -84 364 -95 554 -30 153 52 251 148
238 232 -3 18 -2 33 3 33 15 0 40 -56 40 -88 0 -38 -48 -111 -93 -142 -20 -14
-42 -41 -51 -62 l-15 -38 32 21 c60 41 99 84 122 132 13 27 25 43 27 35 3 -7
4 10 4 37 -1 28 -5 53 -9 56 -4 3 -9 15 -10 27 0 11 -4 19 -7 17 -4 -2 -14 5
-23 16 -9 10 -22 19 -29 18 -10 0 -10 -2 0 -6 6 -2 10 -9 6 -14 -12 -19 -30
-7 -54 36 -13 24 -30 47 -37 49 -7 3 -13 10 -13 16 0 6 5 8 10 5 6 -3 10 -1
10 5 0 7 -7 9 -17 6 -9 -4 -19 -3 -22 1 -12 16 -77 60 -108 72 -18 8 -33 18
-33 23 0 6 -7 8 -15 4 -8 -3 -15 -2 -15 2 0 21 -224 43 -275 27z m274 -45 c86
-31 178 -102 218 -170 58 -96 38 -160 -72 -225 -87 -52 -173 -75 -295 -82
-204 -10 -400 63 -456 170 -14 25 -17 138 -4 134 3 -1 30 25 60 57 60 64 137
108 228 131 82 21 239 13 321 -15z m271 -454 c0 -2 -7 -7 -16 -10 -8 -3 -12
-2 -9 4 6 10 25 14 25 6z"/>
<path d="M1265 2548 c-22 -6 -47 -14 -56 -18 -9 -5 -27 -6 -40 -3 -19 4 -21 3
-9 -6 13 -10 13 -11 0 -12 -36 -2 -54 -9 -74 -28 -18 -19 -20 -32 -19 -123 1
-90 0 -101 -12 -84 -16 22 -30 99 -21 121 6 18 -26 38 -48 29 -40 -16 0 -120
71 -184 28 -25 56 -47 64 -49 66 -17 79 -18 79 -5 0 8 -6 11 -15 8 -25 -10
-82 15 -89 39 -3 12 -6 70 -6 129 l0 107 83 26 c125 40 174 42 292 7 l100 -28
3 -37 c3 -31 0 -37 -17 -37 -11 0 -30 -10 -43 -22 -13 -13 -17 -18 -8 -13 9 6
6 0 -6 -11 -13 -12 -21 -24 -18 -27 3 -2 -7 -3 -22 -1 -15 1 -30 7 -34 14 -5
7 -15 7 -38 -3 -23 -9 -29 -16 -22 -27 5 -8 6 -18 3 -23 -3 -5 1 -13 8 -18 11
-7 12 -12 2 -28 -11 -17 -9 -19 20 -17 24 1 32 -3 31 -16 -1 -11 8 -18 27 -20
20 -3 29 0 29 9 0 8 4 12 9 9 5 -3 12 1 15 10 3 9 11 12 18 8 7 -4 10 -3 5 1
-10 12 22 45 38 39 7 -3 16 0 21 7 5 9 2 11 -9 6 -8 -3 -18 0 -20 8 -4 9 2 12
19 10 17 -1 22 1 15 8 -6 6 -5 14 5 24 25 25 28 62 8 85 -19 20 -19 21 4 14
13 -5 22 -3 22 3 0 10 -14 15 -32 12 -5 0 -8 5 -8 13 0 15 -47 49 -67 49 -7 0
-15 7 -18 15 -3 8 -12 12 -22 8 -9 -4 -25 1 -36 11 -11 10 -17 12 -13 6 9 -17
-10 -16 -49 1 -19 8 -38 10 -53 5 -15 -6 -21 -5 -17 1 7 11 5 11 -50 -2z
m-255 -180 c0 -23 -3 -39 -6 -36 -9 10 -12 78 -3 78 5 0 9 -19 9 -42z m548
-45 c-24 -27 -53 -61 -62 -76 -10 -15 -25 -27 -34 -27 -16 0 -74 55 -84 80 -9
24 33 23 58 -1 l22 -21 44 48 c74 81 69 77 86 60 14 -14 11 -20 -30 -63z"/>
<path d="M1288 2503 c-21 -2 -38 -9 -38 -15 0 -5 -8 -7 -17 -4 -10 4 -14 4
-10 0 4 -4 -1 -13 -11 -21 -16 -14 -16 -14 3 -7 76 27 138 53 125 52 -8 -1
-32 -3 -52 -5z"/>
<path d="M1285 2459 c-33 -16 -51 -27 -40 -24 11 4 32 9 47 12 15 3 35 14 44
24 22 24 20 24 -51 -12z"/>
<path d="M987 2459 c7 -7 15 -10 18 -7 3 3 -2 9 -12 12 -14 6 -15 5 -6 -5z"/>
<path d="M1120 2445 c7 -8 21 -15 31 -15 11 0 19 -4 19 -10 0 -5 6 -10 13 -10
9 0 11 -22 7 -89 -4 -76 -3 -88 10 -83 13 5 13 4 0 -13 -8 -10 -10 -16 -3 -12
6 4 14 1 17 -5 3 -7 4 33 3 90 -2 94 0 102 17 102 12 0 16 -5 13 -15 -4 -8 -2
-17 3 -20 6 -4 10 3 10 15 0 12 4 19 10 15 5 -3 7 -12 3 -20 -3 -8 0 -15 7
-15 6 0 8 5 4 12 -5 8 4 9 35 4 29 -4 40 -3 36 4 -4 7 3 9 22 5 21 -5 24 -4
13 4 -9 6 -10 11 -3 11 6 0 20 3 30 6 15 5 15 4 3 -5 -12 -9 -11 -11 8 -11 16
0 21 4 16 13 -5 8 -2 8 9 -2 11 -9 17 -10 17 -2 0 6 15 12 33 12 l32 1 -30 8
c-16 4 -23 9 -15 10 33 4 52 9 58 14 16 17 -15 12 -117 -18 l-113 -34 -67 20
c-36 11 -83 26 -104 33 -34 12 -37 12 -27 0z"/>
<path d="M1652 2418 c-7 -7 -12 -24 -12 -38 0 -25 -17 -90 -36 -135 -6 -15 1
-13 30 12 71 58 96 122 60 157 -19 19 -26 20 -42 4z m20 -30 c-3 -14 -2 -19 6
-14 19 11 14 -16 -8 -49 -20 -31 -28 -28 -11 4 6 10 6 23 1 31 -5 8 -4 22 1
32 13 24 18 23 11 -4z"/>
<path d="M1117 2410 c13 -13 56 -23 49 -12 -3 5 -17 12 -32 15 -14 2 -22 1
-17 -3z"/>
<path d="M1306 2361 c-6 -10 24 -25 32 -16 3 3 0 5 -7 5 -7 0 -9 5 -6 10 3 6
2 10 -4 10 -5 0 -12 -4 -15 -9z"/>
<path d="M1321 2275 c2 -39 6 -52 13 -45 17 17 18 87 0 94 -12 5 -15 -3 -13
-49z"/>
<path d="M1265 2210 c3 -5 8 -10 11 -10 2 0 4 5 4 10 0 6 -5 10 -11 10 -5 0
-7 -4 -4 -10z"/>
<path d="M1395 2210 c3 -5 8 -10 11 -10 2 0 4 5 4 10 0 6 -5 10 -11 10 -5 0
-7 -4 -4 -10z"/>
<path d="M1331 2194 c-17 -13 -36 -15 -74 -11 -29 4 -47 3 -41 -2 27 -27 154
-11 154 19 0 14 -12 12 -39 -6z"/>
<path d="M1741 2551 c-8 -5 -9 -11 -3 -15 5 -3 12 1 16 9 6 17 6 18 -13 6z"/>
<path d="M2134 2472 c3 -5 -14 -9 -37 -10 -24 -1 -47 -8 -53 -17 -6 -8 -13
-13 -15 -11 -9 10 4 -350 13 -361 6 -7 27 -13 48 -13 44 0 56 12 59 60 1 19 6
37 11 38 6 2 7 9 4 14 -4 7 -2 8 5 4 9 -6 9 -11 0 -22 -9 -11 -8 -14 5 -14 9
0 16 -6 16 -13 0 -12 26 -39 44 -46 5 -1 13 3 17 11 7 10 9 10 9 0 0 -10 3
-10 14 0 8 7 12 17 9 22 -3 4 5 5 18 1 19 -5 21 -4 9 5 -11 9 -12 13 -2 17 6
2 10 8 7 13 -3 4 1 20 9 34 13 25 13 23 15 -36 1 -72 14 -88 68 -88 27 0 35 5
43 25 12 31 17 31 39 3 10 -12 26 -23 37 -25 47 -10 84 -11 89 -3 4 6 24 7 46
4 44 -7 85 8 92 35 3 11 5 9 6 -5 1 -24 19 -34 61 -34 40 0 52 21 56 101 3 75
13 93 48 85 11 -3 26 0 33 6 11 9 13 -4 11 -75 -2 -98 7 -117 58 -117 37 0 64
22 64 51 0 17 5 15 34 -15 27 -30 40 -36 72 -36 22 0 47 7 57 14 15 12 23 12
50 -2 43 -22 133 -21 175 1 18 10 30 22 27 27 -4 6 -2 10 3 10 6 0 13 -7 16
-16 3 -8 10 -12 16 -9 6 3 22 -2 38 -13 34 -23 120 -22 138 2 10 14 13 14 23
2 20 -23 59 -25 78 -4 10 11 17 22 16 24 -2 2 -3 7 -2 12 0 4 0 42 -1 84 -1
66 1 77 14 72 8 -3 14 -9 13 -12 -1 -4 14 -29 33 -56 19 -27 34 -53 32 -58 -1
-5 1 -7 6 -4 5 3 14 -6 21 -20 6 -15 16 -22 23 -18 7 4 8 3 4 -4 -8 -14 24
-32 56 -32 25 1 65 26 50 31 -6 3 -6 13 0 28 l9 25 17 -25 c9 -13 16 -27 14
-32 -1 -4 1 -6 5 -5 5 1 21 -4 36 -10 42 -18 138 -15 165 4 21 14 25 14 40 1
11 -10 42 -17 85 -19 60 -3 70 0 101 24 40 32 50 75 27 123 -9 19 -20 34 -24
35 -5 0 -5 -6 -2 -12 4 -7 1 -6 -7 3 -7 9 -30 22 -51 28 -48 16 -44 23 6 12
28 -7 37 -6 37 5 0 18 -63 29 -90 14 -31 -16 -20 -32 36 -53 65 -24 84 -43 84
-83 0 -47 -38 -74 -104 -74 -76 0 -93 7 -98 41 -5 33 -1 35 26 14 22 -17 83
-20 106 -5 23 14 1 41 -47 57 -77 26 -103 75 -65 123 20 24 81 36 136 26 34
-7 36 -9 31 -38 -5 -26 -4 -29 9 -19 12 10 15 8 20 -7 4 -11 3 -28 -1 -38 -6
-17 -5 -17 8 -4 9 9 18 22 21 30 2 7 5 -15 5 -51 1 -115 7 -127 69 -145 62
-18 88 -13 110 22 12 18 14 27 5 37 -6 8 -8 17 -4 20 3 4 -2 8 -13 8 -50 3
-49 2 -49 59 0 54 0 55 30 55 27 0 30 3 33 34 3 40 -12 61 -44 61 -17 0 -24 6
-24 19 0 11 -7 26 -15 34 -8 8 -12 17 -9 20 3 3 -11 2 -31 -3 -48 -11 -50 -13
-54 -56 0 -9 -7 -14 -13 -11 -7 2 -18 -3 -24 -11 -8 -11 -16 -12 -30 -5 -33
18 -84 32 -78 22 3 -5 -7 -9 -21 -9 -32 0 -76 -22 -94 -48 -13 -18 -14 -18
-45 13 -50 52 -123 52 -184 0 -16 -13 -33 -21 -37 -17 -4 4 -4 -3 -1 -15 4
-12 3 -24 -2 -27 -4 -2 -9 34 -10 82 -3 98 -12 116 -56 108 -40 -8 -46 -20
-46 -98 0 -39 -4 -68 -10 -68 -5 0 -10 5 -10 12 0 6 -3 9 -6 5 -3 -3 1 -16 10
-29 25 -35 19 -43 -9 -10 -14 17 -25 33 -25 36 0 13 -82 116 -92 116 -6 0 -7
7 -4 16 3 8 2 13 -3 9 -5 -3 -15 1 -23 8 -14 15 -50 19 -42 5 3 -4 -2 -8 -10
-8 -16 0 -31 -34 -22 -49 4 -5 1 -11 -6 -13 -7 -3 -8 -9 -3 -18 11 -18 13 -60
2 -60 -4 0 -5 -5 -1 -12 10 -16 11 -197 1 -191 -4 2 -5 9 -2 14 4 5 -1 9 -9 9
-10 0 -16 -9 -16 -25 0 -24 -3 -25 -53 -25 -31 0 -61 6 -75 16 -20 14 -22 24
-22 100 0 84 0 84 -26 84 -22 0 -25 4 -22 28 2 22 7 26 27 24 22 -3 23 -1 19
37 l-4 41 41 0 41 0 -4 -41 -4 -41 37 4 c35 2 38 0 41 -25 2 -25 0 -27 -37
-27 l-39 0 0 -54 c0 -79 5 -86 57 -86 39 0 44 2 33 15 -9 11 -17 12 -31 4 -22
-11 -26 -5 -31 52 -3 33 -2 37 19 34 19 -2 21 0 12 12 -9 10 -9 12 3 8 30 -12
44 33 24 78 -6 11 -15 16 -27 12 -12 -4 -21 1 -28 14 -14 26 -14 34 2 25 6 -4
4 1 -5 12 -10 10 -31 19 -47 20 -16 1 -35 5 -42 9 -8 5 -10 4 -5 -3 4 -7 1
-12 -9 -12 -12 0 -15 -5 -9 -22 6 -21 6 -22 -12 -8 -18 14 -18 14 -4 -4 12
-15 12 -20 2 -24 -7 -2 -19 -11 -27 -19 -11 -10 -20 -12 -28 -5 -20 16 -100
31 -131 25 -16 -3 -38 -15 -48 -25 -19 -19 -19 -19 -39 7 -12 14 -25 23 -29
20 -5 -3 -25 -7 -45 -9 -32 -2 -81 -37 -69 -49 2 -2 -1 -9 -8 -15 -10 -8 -12
6 -8 73 6 98 1 106 -71 109 -38 2 -49 0 -45 -11 3 -7 2 -13 -2 -13 -4 0 -6
-26 -4 -57 2 -40 0 -54 -7 -43 -5 8 -7 18 -5 22 3 4 1 8 -4 8 -6 0 -13 -7 -16
-16 -4 -11 -15 -15 -36 -12 -16 3 -31 0 -34 -6 -2 -7 -8 -7 -17 2 -21 19 -77
15 -89 -7 -5 -11 -11 -57 -11 -103 l-2 -83 -7 73 c-4 43 -12 77 -19 82 -8 4
-10 13 -6 21 5 8 5 11 1 7 -4 -3 -24 0 -43 8 -35 15 -166 17 -157 2 2 -4 -4
-9 -15 -13 -23 -7 -23 -44 1 -66 18 -16 9 -47 -11 -35 -6 4 -11 4 -10 -1 3
-20 -2 -34 -11 -28 -6 4 -10 54 -9 121 1 127 -5 141 -58 138 -18 -1 -33 2 -33
7 0 13 -30 -20 -62 -67 -16 -22 -28 -52 -28 -66 0 -14 -7 -31 -15 -38 -8 -7
-15 -20 -15 -28 0 -12 -3 -13 -12 -4 -8 8 -8 15 0 24 7 9 6 18 -4 32 -8 11
-14 15 -14 10 0 -6 5 -15 12 -22 8 -8 9 -12 1 -12 -6 0 -17 17 -23 38 -13 39
-68 142 -76 142 -3 0 -3 -4 0 -8z m934 -131 c-2 -66 -1 -118 1 -115 2 2 11 -2
20 -9 14 -11 14 -10 3 5 -12 15 -9 24 24 66 35 44 42 48 81 48 24 -1 43 -2 43
-4 0 -2 -21 -28 -46 -58 l-46 -54 48 -64 c27 -35 53 -61 58 -58 5 3 6 0 2 -6
-4 -7 -27 -12 -51 -12 -42 0 -46 3 -86 58 -23 31 -45 60 -48 64 -4 5 -5 -21
-3 -57 l4 -65 -41 0 -41 0 0 190 0 190 41 0 40 0 -3 -119z m-897 32 c18 -38
42 -92 54 -122 21 -48 24 -51 30 -30 4 13 28 68 53 122 l45 97 43 0 44 0 0
-180 0 -180 -41 0 -40 0 3 119 c2 66 0 117 -4 114 -5 -2 -8 -8 -8 -13 0 -5
-19 -50 -41 -100 -37 -80 -45 -90 -68 -90 -22 0 -30 10 -53 63 -15 34 -37 82
-48 107 l-20 45 3 -123 2 -122 -37 0 -38 0 0 180 0 180 45 0 45 0 31 -67z
m1724 -60 c49 -66 95 -129 100 -138 7 -11 9 27 7 124 l-3 141 30 0 31 0 0
-180 0 -180 -27 0 c-24 0 -41 18 -119 123 -50 67 -94 129 -97 137 -3 8 -6 -47
-6 -122 l-1 -138 -27 0 -28 0 2 87 c1 49 2 129 3 179 0 88 1 91 22 90 17 -1
47 -34 113 -123z m815 56 l0 -42 35 6 c32 5 35 4 35 -19 0 -21 -4 -24 -38 -24
l-38 0 4 -67 c5 -92 6 -95 44 -91 29 3 32 0 32 -22 1 -23 -4 -25 -48 -28 -31
-2 -56 2 -72 13 -22 14 -24 21 -24 106 l0 91 -25 -4 c-22 -5 -25 -2 -25 24 0
25 3 28 25 22 24 -6 25 -4 25 35 0 40 1 41 35 41 34 0 35 -1 35 -41z m-2409
-6 c-12 -20 -14 -14 -5 12 4 9 9 14 11 11 3 -2 0 -13 -6 -23z m395 -57 c22
-25 24 -36 24 -127 l0 -99 -35 0 c-28 0 -35 4 -35 20 l0 20 -20 -20 c-23 -23
-95 -27 -122 -6 -24 17 -33 68 -18 96 14 27 67 50 115 50 25 0 35 4 35 15 0
19 -46 37 -74 29 -11 -3 -28 -8 -37 -10 -12 -3 -18 3 -22 21 -6 35 19 46 102
42 55 -3 67 -7 87 -31z m144 13 c0 -11 7 -28 16 -37 15 -15 16 -14 10 5 -8 25
25 53 61 53 20 0 23 -5 23 -37 0 -36 -2 -38 -34 -39 -57 -1 -66 -16 -66 -105
l0 -79 -40 0 -40 0 0 130 0 130 35 0 c29 0 35 -4 35 -21z m599 7 c32 -17 51
-54 51 -101 l0 -35 -85 0 c-83 0 -85 -1 -75 -20 27 -50 107 -48 163 4 l36 32
-4 -25 c-1 -14 -3 -30 -4 -34 0 -4 -11 -3 -22 4 -20 10 -21 9 -17 -24 5 -42
-5 -47 -90 -47 -95 0 -142 41 -142 123 0 86 44 136 123 137 21 0 50 -6 66 -14z
m862 -14 c23 -21 32 -39 36 -72 l5 -45 -92 3 -92 3 7 -23 c15 -51 76 -72 139
-48 23 9 26 7 26 -14 0 -27 -21 -36 -87 -36 -80 0 -127 34 -138 101 -21 123
109 209 196 131z m-1046 -12 c3 -5 1 -10 -4 -10 -6 0 -11 5 -11 10 0 6 2 10 4
10 3 0 8 -4 11 -10z m-27 -81 l3 -71 -24 28 c-34 40 -34 43 -7 80 14 19 25 34
25 34 1 0 2 -32 3 -71z m1161 -23 c9 -11 6 -18 -19 -36 -17 -12 -34 -20 -36
-17 -11 10 7 47 22 47 8 0 12 5 9 10 -9 15 11 12 24 -4z m-65 -31 c-4 -8 -16
-16 -28 -17 -61 -4 -80 -3 -94 8 -13 9 -4 12 46 12 35 0 66 2 69 6 10 10 13 7
7 -9z m125 1 c31 -17 12 -29 -34 -20 -29 5 -33 9 -24 20 14 17 27 17 58 0z
m-1019 0 c0 -2 -7 -6 -15 -10 -8 -3 -15 -1 -15 4 0 6 7 10 15 10 8 0 15 -2 15
-4z m-670 -36 c0 -5 -2 -10 -4 -10 -3 0 -8 5 -11 10 -3 6 -1 10 4 10 6 0 11
-4 11 -10z m777 -15 c8 -23 0 -24 -19 -3 -15 15 -16 18 -3 18 9 0 18 -7 22
-15z"/>
<path d="M2580 2188 c-30 -11 -23 -52 8 -56 29 -4 52 14 52 42 0 23 -22 28
-60 14z m36 -20 c4 -7 3 -8 -4 -4 -7 4 -12 2 -12 -4 0 -6 -5 -8 -11 -4 -8 4
-7 9 2 15 18 11 17 11 25 -3z"/>
<path d="M3354 2282 c-6 -4 -16 -17 -23 -29 -11 -22 -10 -23 39 -23 41 0 50 3
50 18 0 34 -38 53 -66 34z m41 -22 c3 -5 2 -10 -4 -10 -5 0 -13 5 -16 10 -3 6
-2 10 4 10 5 0 13 -4 16 -10z"/>
<path d="M3291 2254 c0 -11 3 -14 6 -6 3 7 2 16 -1 19 -3 4 -6 -2 -5 -13z"/>
<path d="M3290 2136 c7 -7 13 -7 20 0 6 6 3 10 -10 10 -13 0 -16 -4 -10 -10z"/>
<path d="M4194 2286 c-12 -9 -24 -25 -27 -36 -5 -19 -1 -20 59 -20 l64 0 -13
33 c-15 37 -50 46 -83 23z m44 -20 c-2 -5 -13 -10 -25 -11 -17 0 -19 2 -11 13
12 14 41 13 36 -2z"/>
<path d="M3211 2204 c0 -11 3 -14 6 -6 3 7 2 16 -1 19 -3 4 -6 -2 -5 -13z"/>
<path d="M835 2400 c-4 -6 -11 -7 -17 -4 -7 4 -8 2 -4 -4 4 -7 3 -12 -2 -12
-16 0 -23 -65 -12 -95 7 -20 8 -31 0 -39 -12 -12 -13 -73 -1 -80 5 -3 8 -23 7
-45 -1 -22 1 -38 5 -35 10 6 19 -24 13 -41 -5 -11 -2 -13 11 -9 15 6 16 4 5
-16 -7 -14 -8 -20 -1 -16 10 7 56 -38 56 -55 0 -5 4 -9 8 -8 16 2 65 -53 62
-70 -2 -11 5 -17 24 -18 37 -4 55 -8 66 -15 55 -33 87 -46 101 -41 13 5 15 3
9 -7 -6 -10 -4 -12 10 -6 10 4 21 2 25 -4 7 -12 219 -19 223 -8 1 5 25 9 53
10 29 2 50 6 47 11 -2 4 3 7 12 7 9 0 29 6 43 14 37 20 96 41 104 38 4 -1 4 6
1 15 -5 13 -2 15 11 10 11 -4 15 -3 11 4 -4 6 -1 10 6 8 26 -3 39 1 39 12 0 8
-5 8 -15 -1 -10 -9 -15 -9 -15 -1 0 6 5 12 10 12 6 1 16 2 23 3 6 0 12 6 12
11 1 15 29 55 39 55 4 0 1 -11 -8 -25 -9 -14 -13 -25 -9 -25 15 0 33 39 26 56
-4 12 -3 15 5 10 8 -5 10 -1 5 10 -4 12 -3 15 6 10 6 -4 11 -4 10 1 -4 15 13
63 22 63 5 0 9 4 9 10 0 22 -28 -4 -58 -54 -116 -194 -399 -293 -640 -223 -97
28 -175 74 -241 142 -56 57 -130 168 -106 159 8 -4 15 -9 15 -13 0 -24 185
-180 198 -167 11 12 -49 77 -106 116 -73 49 -117 106 -126 160 -6 31 -5 33 6
16 37 -56 139 -151 112 -103 -4 7 -3 9 2 4 5 -5 7 -10 4 -11 -7 -4 21 -36 32
-36 15 0 -2 43 -30 73 -17 18 -33 25 -46 22 -12 -3 -15 -2 -8 1 9 4 4 17 -18
43 -29 38 -50 81 -50 105 0 7 11 30 25 50 13 20 20 36 15 36 -5 0 -12 -5 -15
-10z m130 -398 c-3 -3 -11 0 -18 7 -9 10 -8 11 6 5 10 -3 15 -9 12 -12z m28
-126 c4 -10 1 -13 -8 -9 -8 3 -12 9 -9 14 7 12 11 11 17 -5z"/>
<path d="M2568 2373 c7 -3 16 -2 19 1 4 3 -2 6 -13 5 -11 0 -14 -3 -6 -6z"/>
<path d="M2898 2363 c7 -3 16 -2 19 1 4 3 -2 6 -13 5 -11 0 -14 -3 -6 -6z"/>
<path d="M1866 2199 c-7 -47 -75 -126 -141 -164 -22 -13 -57 -45 -79 -70 l-38
-46 53 27 c63 31 187 153 212 207 18 40 23 87 8 87 -5 0 -11 -18 -15 -41z"/>
<path d="M3860 2201 c0 -6 4 -13 10 -16 6 -3 7 1 4 9 -7 18 -14 21 -14 7z"/>
<path d="M3590 2150 c0 -5 5 -10 11 -10 5 0 7 5 4 10 -3 6 -8 10 -11 10 -2 0
-4 -4 -4 -10z"/>
<path d="M3580 2126 c0 -2 8 -10 18 -17 15 -13 16 -12 3 4 -13 16 -21 21 -21
13z"/>
<path d="M4090 2111 c0 -6 4 -13 10 -16 6 -3 7 1 4 9 -7 18 -14 21 -14 7z"/>
<path d="M1010 2106 c0 -1 5 -17 11 -35 10 -27 19 -34 81 -52 38 -12 71 -19
73 -17 2 2 -4 17 -14 34 -13 22 -31 33 -69 43 -29 7 -54 17 -58 22 -5 9 -24
13 -24 5z m57 -42 c-3 -3 -12 -4 -19 -1 -8 3 -5 6 6 6 11 1 17 -2 13 -5z m68
-32 c-3 -3 -11 0 -18 7 -9 10 -8 11 6 5 10 -3 15 -9 12 -12z"/>
<path d="M1611 2088 c-23 -11 -73 -25 -110 -32 l-66 -13 40 -11 c54 -16 82
-15 130 4 29 11 44 24 52 45 13 34 12 34 -46 7z"/>
<path d="M1197 2069 c7 -7 15 -10 18 -7 3 3 -2 9 -12 12 -14 6 -15 5 -6 -5z"/>
<path d="M1228 2020 c9 -14 17 -26 18 -28 5 -9 60 -12 132 -7 l82 7 -47 23
c-34 17 -70 24 -124 27 l-76 3 15 -25z m75 -3 c25 2 28 1 12 -6 -26 -11 -48
-8 -51 8 -1 6 0 8 2 3 2 -5 19 -7 37 -5z"/>
<path d="M1000 2036 c0 -2 8 -10 18 -17 15 -13 16 -12 3 4 -13 16 -21 21 -21
13z"/>
<path d="M1050 1995 c0 -3 24 -29 53 -59 48 -48 59 -53 109 -59 31 -4 65 -10
75 -14 10 -4 -2 13 -27 37 -25 24 -56 45 -70 47 -38 6 -93 24 -117 39 -13 8
-23 12 -23 9z m123 -77 c4 -10 7 -10 18 -1 14 14 39 0 39 -21 0 -6 -5 -4 -10
4 -6 9 -10 10 -10 3 0 -9 -8 -9 -30 -1 -34 11 -49 28 -26 28 8 0 16 -6 19 -12z"/>
<path d="M1616 1978 c3 -5 10 -6 15 -3 13 9 11 12 -6 12 -8 0 -12 -4 -9 -9z"/>
<path d="M1545 1964 c-22 -9 -90 -18 -152 -21 -108 -6 -111 -7 -90 -23 12 -9
37 -25 56 -35 32 -16 37 -16 98 0 44 12 76 29 105 56 47 42 44 45 -17 23z
m-75 -54 c-26 -13 -90 -22 -90 -11 0 5 -8 11 -17 13 -10 2 13 4 52 5 38 1 63
-2 55 -7z"/>
<path d="M1050 1956 c0 -2 8 -10 18 -17 15 -13 16 -12 3 4 -13 16 -21 21 -21
13z"/>
<path d="M2009 1903 c-13 -16 -12 -17 4 -4 9 7 17 15 17 17 0 8 -8 3 -21 -13z"/>
<path d="M2040 1905 c-6 -8 -8 -20 -4 -26 5 -8 1 -11 -13 -7 -12 3 -20 0 -20
-7 0 -8 7 -11 16 -7 14 5 14 3 2 -11 -7 -9 -9 -17 -3 -17 15 0 8 -60 -9 -72
-11 -8 -11 -9 3 -4 11 3 19 -2 23 -15 4 -10 11 -17 16 -14 5 4 9 1 9 -6 0 -7
8 -9 21 -6 15 4 19 2 15 -9 -3 -9 -1 -12 4 -9 6 3 10 12 10 20 0 7 7 16 16 19
13 5 14 3 6 -7 -15 -18 29 -17 51 1 20 17 41 6 32 -16 -5 -14 -4 -14 12 0 27
23 103 13 88 -12 -3 -5 -1 -12 5 -15 6 -4 9 -3 8 2 -2 4 6 19 16 33 18 24 18
24 13 3 -3 -13 -1 -23 5 -23 5 0 7 -4 4 -8 -3 -5 8 -8 25 -8 17 0 29 5 29 13
0 7 4 13 9 13 22 0 70 51 66 71 -2 11 0 17 6 14 13 -9 11 9 -3 25 -7 8 -3 6 9
-4 12 -10 20 -26 18 -37 -6 -32 5 -47 43 -60 30 -10 37 -9 48 5 9 13 13 14 17
4 3 -10 8 -11 26 0 26 15 34 15 25 0 -5 -7 -3 -8 6 -3 7 4 16 2 21 -6 7 -12 9
-12 9 0 0 8 6 11 16 7 10 -4 13 -2 8 6 -5 8 -2 9 12 3 10 -5 31 -8 47 -7 15 1
27 -2 27 -6 0 -10 49 -8 74 3 13 6 21 4 24 -3 4 -14 23 -17 19 -3 -5 20 19 12
30 -10 9 -17 13 -19 13 -7 0 9 -4 19 -8 22 -13 8 -13 66 0 66 5 0 8 -6 6 -12
-3 -7 6 -21 19 -31 13 -10 21 -22 18 -27 -3 -5 0 -12 6 -16 8 -5 9 -3 4 5 -5
10 2 11 31 7 30 -5 35 -3 24 5 -12 9 -11 10 8 6 12 -3 20 -1 16 4 -3 5 0 9 5
9 6 0 11 9 11 20 0 22 -36 47 -42 28 -3 -8 -9 -8 -23 -1 -17 10 -17 11 3 17
29 10 28 21 -5 54 -15 15 -27 30 -26 34 1 3 -5 12 -15 20 -15 12 -16 11 -4 -4
10 -12 10 -18 1 -23 -8 -6 -7 -10 5 -17 9 -5 14 -13 11 -19 -4 -5 3 -9 14 -9
12 0 21 -4 21 -10 0 -5 -8 -10 -19 -10 -13 0 -18 -7 -18 -26 0 -18 6 -28 18
-31 24 -7 25 -23 1 -23 -26 0 -42 20 -42 52 0 24 -4 28 -30 28 -31 0 -33 -5
-30 -52 1 -20 -3 -28 -14 -28 -13 0 -16 11 -16 50 0 35 4 50 13 49 6 -1 26 -1
44 0 28 1 32 4 31 31 -1 24 -4 28 -14 19 -8 -6 -11 -15 -9 -19 6 -10 -54 -14
-137 -9 -18 1 -34 -3 -36 -9 -3 -9 -9 -8 -24 2 -17 12 -116 14 -155 4 -5 -1
-18 2 -31 6 -15 5 -32 1 -55 -13 -35 -21 -72 -19 -81 5 -7 18 -72 16 -88 -3
-8 -10 -14 -11 -25 -1 -22 18 -52 20 -75 4 -20 -14 -52 -11 -43 4 3 5 -5 6
-17 2 -14 -3 -19 -1 -14 6 4 6 -4 16 -16 23 -13 7 -26 17 -30 23 -5 7 -8 5 -8
-6 0 -9 -5 -20 -12 -24 -6 -4 -8 -3 -4 4 4 7 -10 10 -46 7 -47 -3 -50 -1 -33
11 10 8 14 14 8 14 -6 0 -16 -7 -23 -15z m74 -31 c22 -8 20 -26 -1 -23 -52 5
-60 -20 -13 -38 53 -20 34 -73 -26 -73 -23 0 -33 5 -37 20 -3 11 0 23 5 27 7
3 8 1 4 -5 -8 -13 37 -28 53 -17 19 11 12 21 -24 38 -41 20 -47 53 -12 67 28
11 32 11 51 4z m66 -18 c0 -19 4 -22 24 -19 29 6 33 0 37 -51 3 -25 -1 -41 -9
-44 -8 -2 -12 9 -12 37 0 34 -3 41 -20 41 -17 0 -20 -7 -20 -40 0 -29 -4 -40
-15 -40 -12 0 -15 14 -15 70 0 56 3 70 15 70 9 0 15 -9 15 -24z m168 -28 c7
-7 12 -24 12 -38 0 -52 -57 -69 -85 -26 -23 35 -5 76 33 76 15 0 33 -5 40 -12z
m123 -14 c14 -38 -13 -78 -47 -70 -22 6 -24 4 -18 -19 5 -19 2 -25 -10 -25
-13 0 -16 12 -16 68 l0 69 40 1 c35 2 42 -2 51 -24z m149 16 c0 -5 -15 -10
-32 -11 l-33 0 33 -16 c34 -18 43 -47 16 -57 -28 -11 -64 -6 -64 7 0 9 10 12
33 10 28 -4 30 -2 15 9 -9 7 -24 18 -33 23 -28 17 -8 45 31 45 19 0 34 -4 34
-10z m170 -46 c4 -42 3 -50 -10 -47 -11 3 -14 14 -12 44 4 34 2 39 -17 39 -22
0 -25 -7 -22 -52 1 -19 -4 -28 -14 -28 -11 0 -15 11 -15 41 0 33 -3 40 -17 37
-13 -2 -19 -14 -21 -41 -5 -54 -22 -45 -22 12 l0 49 73 -2 72 -1 5 -51z m98
44 c7 -7 12 -28 12 -49 0 -36 -1 -36 -37 -34 -55 3 -55 3 -51 28 2 16 11 23
31 25 16 2 26 8 24 15 -2 7 -14 11 -25 9 -12 -2 -22 2 -22 7 0 15 53 14 68 -1z
m222 -74 c0 -9 -5 -14 -12 -12 -18 6 -21 28 -4 28 9 0 16 -7 16 -16z"/>
<path d="M2292 1793 c2 -20 8 -28 23 -28 31 0 28 49 -3 53 -20 3 -23 0 -20
-25z"/>
<path d="M2406 1805 c-8 -22 4 -46 23 -43 9 2 17 15 19 31 3 21 -1 27 -16 27
-11 0 -22 -7 -26 -15z"/>
<path d="M2837 1783 c-13 -12 -7 -23 13 -23 11 0 20 7 20 15 0 15 -21 21 -33
8z"/>
<path d="M3155 1909 c-4 -6 -5 -12 -2 -15 2 -3 7 2 10 11 7 17 1 20 -8 4z"/>
<path d="M3180 1905 c-7 -9 -10 -18 -7 -21 3 -3 10 4 17 15 13 25 8 27 -10 6z"/>
<path d="M3200 1895 c-13 -14 -31 -25 -39 -25 -14 0 -14 -1 -1 -10 12 -8 12
-10 -5 -10 -19 -1 -19 -2 3 -17 12 -8 22 -20 22 -25 0 -6 -7 -5 -15 2 -10 9
-15 9 -15 1 0 -10 14 -15 34 -12 5 1 2 -9 -7 -22 -17 -26 -13 -38 21 -56 18
-9 30 -9 57 0 19 7 31 17 28 22 -3 6 -1 7 6 3 6 -4 9 -12 6 -17 -4 -5 2 -10
12 -11 10 0 25 -2 33 -2 8 -1 18 3 22 8 4 6 12 5 22 -3 11 -9 20 -10 35 -2 24
13 34 14 27 2 -4 -5 0 -12 6 -14 7 -3 3 -6 -9 -6 -12 -1 -24 -5 -28 -10 -3 -6
6 -6 25 -1 18 5 30 5 30 -1 0 -10 28 -8 48 4 6 5 12 5 12 1 0 -17 29 32 30 49
0 10 4 16 9 13 5 -3 15 2 22 11 8 9 9 14 2 10 -16 -10 -22 14 -9 35 11 19 1
37 -13 22 -5 -5 -19 -34 -31 -64 -12 -30 -27 -58 -33 -62 -17 -11 -37 -10 -37
2 0 6 6 10 14 10 23 0 24 22 4 68 -22 52 -22 52 -4 52 8 0 17 -15 20 -35 8
-41 21 -39 29 5 4 18 13 30 22 30 8 0 15 5 15 10 0 7 -13 8 -34 5 -21 -4 -36
-2 -41 5 -5 8 -10 8 -20 0 -10 -8 -19 -8 -35 0 -16 8 -30 9 -52 1 -40 -14 -41
-14 -34 5 4 10 2 13 -6 8 -8 -5 -9 -2 -4 11 5 13 3 15 -6 8 -20 -14 -57 -8
-74 13 -9 11 -13 13 -9 7 7 -15 -7 -17 -21 -3 -7 7 -18 2 -34 -15z m30 5 c0
-5 -5 -10 -11 -10 -5 0 -7 5 -4 10 3 6 8 10 11 10 2 0 4 -4 4 -10z m31 -30 c5
0 9 -4 9 -10 0 -5 -13 -10 -30 -10 -35 0 -40 -17 -7 -29 69 -27 45 -94 -29
-79 -32 6 -27 26 7 25 42 -2 49 20 11 34 -32 11 -45 30 -36 53 6 16 32 26 52
20 8 -2 18 -4 23 -4z m65 -15 c-4 -10 1 -15 14 -15 11 0 20 -4 20 -10 0 -5 -9
-10 -19 -10 -15 0 -19 -6 -17 -27 2 -16 10 -29 20 -31 22 -5 21 -22 -2 -22
-25 0 -42 20 -42 50 0 14 -5 31 -12 38 -9 9 -9 12 0 12 7 0 12 7 12 15 0 8 7
15 16 15 10 0 14 -6 10 -15z m119 -26 c4 -6 8 -27 10 -48 l3 -38 -41 1 c-38 1
-42 3 -42 26 0 20 6 26 28 28 16 2 26 8 24 15 -2 7 -14 11 -25 9 -12 -2 -22 2
-22 7 0 14 57 14 65 0z m96 -112 c-10 -9 -11 -8 -5 6 3 10 9 15 12 12 3 -3 0
-11 -7 -18z"/>
<path d="M3397 1783 c-13 -12 -7 -23 13 -23 11 0 20 7 20 15 0 15 -21 21 -33
8z"/>
<path d="M3960 1910 c-9 -6 -10 -10 -3 -10 6 0 15 5 18 10 8 12 4 12 -15 0z"/>
<path d="M4200 1911 c-8 -6 -18 -7 -22 -5 -4 3 -6 -1 -3 -8 2 -7 -12 -23 -31
-35 -32 -21 -37 -22 -58 -8 -13 9 -31 13 -40 9 -20 -8 -69 4 -62 15 9 13 -28
9 -45 -6 -9 -7 -23 -11 -32 -7 -9 3 -30 -1 -47 -9 -16 -9 -30 -12 -30 -7 0 15
-45 19 -71 6 -21 -11 -29 -11 -44 0 -23 17 -75 11 -90 -10 -7 -9 -15 -12 -19
-8 -4 4 -6 0 -4 -8 2 -8 8 -18 13 -22 6 -5 6 -8 -1 -8 -10 0 -12 -29 -5 -72 1
-4 8 -4 18 -1 11 4 14 3 9 -5 -4 -7 -2 -12 3 -12 6 0 11 5 11 11 0 6 6 9 14 6
21 -8 36 14 36 55 0 31 -4 38 -19 38 -23 0 -33 -23 -25 -56 5 -18 2 -24 -10
-24 -13 0 -16 11 -16 49 l0 49 43 -2 42 -1 3 -44 c2 -33 -1 -47 -12 -53 -15
-8 -15 -11 -1 -25 21 -20 11 -30 -12 -12 -17 12 -17 12 -2 -4 10 -11 22 -15
33 -11 14 5 15 9 4 15 -10 7 -10 9 2 9 13 0 13 1 0 10 -12 8 -9 10 13 10 16 0
26 -4 23 -8 -7 -12 38 -9 47 3 4 6 10 6 15 -2 11 -17 84 -10 96 10 9 13 13 12
34 -11 13 -15 21 -21 17 -13 -5 9 -3 12 6 9 8 -3 21 2 29 10 13 14 15 14 18
-1 3 -13 8 -14 30 -6 l27 9 -25 -20 -25 -21 28 12 c15 7 27 16 27 21 0 5 4 7
9 4 5 -4 11 0 14 6 3 10 8 10 18 2 18 -14 66 -16 74 -4 6 10 -6 14 -38 10 -27
-2 -47 19 -47 50 0 33 22 54 50 47 17 -4 20 0 20 24 0 16 5 29 10 29 6 0 11
-34 12 -77 1 -99 2 -100 12 -110 5 -4 6 -3 3 3 -7 13 17 27 27 16 4 -3 17 -7
29 -9 13 -2 17 0 10 5 -6 4 -10 22 -9 40 1 18 -2 36 -7 39 -6 3 -7 1 -3 -5 11
-18 -2 -14 -23 7 -14 14 -16 22 -7 31 8 10 8 11 -2 6 -9 -6 -11 -1 -7 16 4 16
1 29 -9 37 -9 7 -13 17 -10 22 7 11 3 11 -16 0z m-230 -56 c0 -8 7 -15 15 -15
8 0 15 -4 15 -10 0 -5 -7 -10 -15 -10 -10 0 -15 -10 -15 -30 0 -20 5 -30 15
-30 8 0 15 -5 15 -11 0 -6 -10 -9 -22 -7 -18 2 -24 11 -26 38 -2 19 -9 39 -15
43 -9 6 -9 10 1 14 6 2 12 11 12 19 0 8 5 14 10 14 6 0 10 -7 10 -15z m-142
-46 c3 -23 0 -25 -27 -21 -24 3 -31 0 -31 -12 0 -11 9 -16 30 -16 17 0 30 -4
30 -10 0 -16 -57 -12 -74 6 -19 18 -20 38 -5 65 8 15 19 19 42 17 26 -2 33 -8
35 -29z m92 20 c0 -6 -8 -8 -19 -4 -30 9 -36 -14 -7 -25 29 -11 35 -44 10 -54
-24 -9 -54 -7 -54 4 0 6 11 10 25 10 14 0 25 4 25 10 0 5 -11 12 -25 16 -24 6
-34 32 -18 47 11 11 63 8 63 -4z m178 -20 c3 -24 0 -25 -29 -21 -24 4 -30 1
-27 -9 3 -8 17 -14 31 -14 16 1 27 -5 27 -12 0 -16 -52 -17 -68 -1 -13 13 -16
70 -5 82 4 4 21 6 38 4 24 -2 31 -8 33 -29z m170 -51 c-6 -18 -28 -21 -28 -4
0 9 7 16 16 16 9 0 14 -5 12 -12z"/>
<path d="M3777 1824 c-13 -13 -7 -24 14 -24 11 0 19 5 17 12 -5 14 -22 21 -31
12z"/>
<path d="M4053 1823 c-20 -7 -15 -23 7 -23 11 0 20 4 20 9 0 13 -12 19 -27 14z"/>
<path d="M1345 1861 c-3 -5 -2 -12 3 -15 5 -3 9 1 9 9 0 17 -3 19 -12 6z"/>
<path d="M4290 1823 c0 -15 18 -35 23 -27 3 5 -1 15 -9 22 -8 7 -14 9 -14 5z"/>
<path d="M4145 1810 c-3 -6 -3 -19 0 -31 10 -29 39 -20 43 14 3 21 -1 27 -17
27 -11 0 -23 -5 -26 -10z"/>
<path d="M1115 1770 c-3 -6 1 -7 9 -4 18 7 21 14 7 14 -6 0 -13 -4 -16 -10z"/>
<path d="M2991 1733 c7 -12 15 -20 18 -17 3 2 -3 12 -13 22 -17 16 -18 16 -5
-5z"/>
<path d="M2010 1730 c0 -5 5 -10 11 -10 5 0 7 5 4 10 -3 6 -8 10 -11 10 -2 0
-4 -4 -4 -10z"/>
<path d="M4100 1702 c-19 -19 -20 -22 -5 -14 37 21 47 29 39 34 -5 2 -20 -7
-34 -20z"/>
<path d="M4141 1700 c-13 -11 -18 -20 -13 -20 6 0 14 5 18 11 4 8 9 7 15 -2 6
-10 8 -7 6 9 0 12 -1 22 -2 22 0 -1 -11 -10 -24 -20z"/>
<path d="M2862 1701 c-11 -7 -11 -9 0 -14 9 -3 15 1 15 9 0 8 -1 14 -1 14 -1
0 -7 -4 -14 -9z"/>
<path d="M2430 1696 c0 -2 7 -7 16 -10 8 -3 12 -2 9 4 -6 10 -25 14 -25 6z"/>
<path d="M3325 1690 c-3 -6 1 -7 9 -4 18 7 21 14 7 14 -6 0 -13 -4 -16 -10z"/>
<path d="M3755 1690 c-3 -6 1 -7 9 -4 18 7 21 14 7 14 -6 0 -13 -4 -16 -10z"/>
<path d="M3850 1696 c0 -2 7 -7 16 -10 8 -3 12 -2 9 4 -6 10 -25 14 -25 6z"/>
<path d="M4265 1690 c-3 -5 -1 -10 4 -10 6 0 11 5 11 10 0 6 -2 10 -4 10 -3 0
-8 -4 -11 -10z"/>
</g>
</svg>
